<svg width="200" height="50" viewBox="0 0 511 150" fill="none" xmlns="http://www.w3.org/2000/svg">
<path d="M150.7 53.8C157.5 53.8 162.967 55.9 167.1 60.1C171.3 64.2333 173.4 70.0333 173.4 77.5V110H159.4V79.4C159.4 75.0667 158.3 71.7667 156.1 69.5C153.9 67.1667 150.9 66 147.1 66C143.3 66 140.267 67.1667 138 69.5C135.8 71.7667 134.7 75.0667 134.7 79.4V110H120.7V79.4C120.7 75.0667 119.6 71.7667 117.4 69.5C115.2 67.1667 112.2 66 108.4 66C104.533 66 101.467 67.1667 99.2 69.5C97 71.7667 95.9 75.0667 95.9 79.4V110H81.9V54.6H95.9V61.3C97.7 58.9667 100 57.1333 102.8 55.8C105.667 54.4667 108.8 53.8 112.2 53.8C116.533 53.8 120.4 54.7333 123.8 56.6C127.2 58.4 129.833 61 131.7 64.4C133.5 61.2 136.1 58.6333 139.5 56.7C142.967 54.7667 146.7 53.8 150.7 53.8ZM183.085 82.1C183.085 76.5 184.185 71.5333 186.385 67.2C188.652 62.8667 191.685 59.5333 195.485 57.2C199.352 54.8667 203.652 53.7 208.385 53.7C212.518 53.7 216.118 54.5333 219.185 56.2C222.318 57.8667 224.818 59.9667 226.685 62.5V54.6H240.785V110H226.685V101.9C224.885 104.5 222.385 106.667 219.185 108.4C216.052 110.067 212.418 110.9 208.285 110.9C203.618 110.9 199.352 109.7 195.485 107.3C191.685 104.9 188.652 101.533 186.385 97.2C184.185 92.8 183.085 87.7667 183.085 82.1ZM226.685 82.3C226.685 78.9 226.018 76 224.685 73.6C223.352 71.1333 221.552 69.2667 219.285 68C217.018 66.6667 214.585 66 211.985 66C209.385 66 206.985 66.6333 204.785 67.9C202.585 69.1667 200.785 71.0333 199.385 73.5C198.052 75.9 197.385 78.7667 197.385 82.1C197.385 85.4333 198.052 88.3667 199.385 90.9C200.785 93.3667 202.585 95.2667 204.785 96.6C207.052 97.9333 209.452 98.6 211.985 98.6C214.585 98.6 217.018 97.9667 219.285 96.7C221.552 95.3667 223.352 93.5 224.685 91.1C226.018 88.6333 226.685 85.7 226.685 82.3ZM285.159 53.8C291.759 53.8 297.092 55.9 301.159 60.1C305.225 64.2333 307.259 70.0333 307.259 77.5V110H293.259V79.4C293.259 75 292.159 71.6333 289.959 69.3C287.759 66.9 284.759 65.7 280.959 65.7C277.092 65.7 274.025 66.9 271.759 69.3C269.559 71.6333 268.459 75 268.459 79.4V110H254.459V54.6H268.459V61.5C270.325 59.1 272.692 57.2333 275.559 55.9C278.492 54.5 281.692 53.8 285.159 53.8ZM316.972 82.1C316.972 76.5 318.072 71.5333 320.272 67.2C322.539 62.8667 325.572 59.5333 329.372 57.2C333.239 54.8667 337.539 53.7 342.272 53.7C346.405 53.7 350.005 54.5333 353.072 56.2C356.205 57.8667 358.705 59.9667 360.572 62.5V54.6H374.672V110H360.572V101.9C358.772 104.5 356.272 106.667 353.072 108.4C349.939 110.067 346.305 110.9 342.172 110.9C337.505 110.9 333.239 109.7 329.372 107.3C325.572 104.9 322.539 101.533 320.272 97.2C318.072 92.8 316.972 87.7667 316.972 82.1ZM360.572 82.3C360.572 78.9 359.905 76 358.572 73.6C357.239 71.1333 355.439 69.2667 353.172 68C350.905 66.6667 348.472 66 345.872 66C343.272 66 340.872 66.6333 338.672 67.9C336.472 69.1667 334.672 71.0333 333.272 73.5C331.939 75.9 331.272 78.7667 331.272 82.1C331.272 85.4333 331.939 88.3667 333.272 90.9C334.672 93.3667 336.472 95.2667 338.672 96.6C340.939 97.9333 343.339 98.6 345.872 98.6C348.472 98.6 350.905 97.9667 353.172 96.7C355.439 95.3667 357.239 93.5 358.572 91.1C359.905 88.6333 360.572 85.7 360.572 82.3ZM410.045 53.7C414.179 53.7 417.812 54.5333 420.945 56.2C424.079 57.8 426.545 59.9 428.345 62.5V54.6H442.445V110.4C442.445 115.533 441.412 120.1 439.345 124.1C437.279 128.167 434.179 131.367 430.045 133.7C425.912 136.1 420.912 137.3 415.045 137.3C407.179 137.3 400.712 135.467 395.645 131.8C390.645 128.133 387.812 123.133 387.145 116.8H401.045C401.779 119.333 403.345 121.333 405.745 122.8C408.212 124.333 411.179 125.1 414.645 125.1C418.712 125.1 422.012 123.867 424.545 121.4C427.079 119 428.345 115.333 428.345 110.4V101.8C426.545 104.4 424.045 106.567 420.845 108.3C417.712 110.033 414.112 110.9 410.045 110.9C405.379 110.9 401.112 109.7 397.245 107.3C393.379 104.9 390.312 101.533 388.045 97.2C385.845 92.8 384.745 87.7667 384.745 82.1C384.745 76.5 385.845 71.5333 388.045 67.2C390.312 62.8667 393.345 59.5333 397.145 57.2C401.012 54.8667 405.312 53.7 410.045 53.7ZM428.345 82.3C428.345 78.9 427.679 76 426.345 73.6C425.012 71.1333 423.212 69.2667 420.945 68C418.679 66.6667 416.245 66 413.645 66C411.045 66 408.645 66.6333 406.445 67.9C404.245 69.1667 402.445 71.0333 401.045 73.5C399.712 75.9 399.045 78.7667 399.045 82.1C399.045 85.4333 399.712 88.3667 401.045 90.9C402.445 93.3667 404.245 95.2667 406.445 96.6C408.712 97.9333 411.112 98.6 413.645 98.6C416.245 98.6 418.679 97.9667 420.945 96.7C423.212 95.3667 425.012 93.5 426.345 91.1C427.679 88.6333 428.345 85.7 428.345 82.3ZM507.619 81.1C507.619 83.1 507.485 84.9 507.219 86.5H466.719C467.052 90.5 468.452 93.6333 470.919 95.9C473.385 98.1667 476.419 99.3 480.019 99.3C485.219 99.3 488.919 97.0667 491.119 92.6H506.219C504.619 97.9333 501.552 102.333 497.019 105.8C492.485 109.2 486.919 110.9 480.319 110.9C474.985 110.9 470.185 109.733 465.919 107.4C461.719 105 458.419 101.633 456.019 97.3C453.685 92.9667 452.519 87.9667 452.519 82.3C452.519 76.5667 453.685 71.5333 456.019 67.2C458.352 62.8667 461.619 59.5333 465.819 57.2C470.019 54.8667 474.852 53.7 480.319 53.7C485.585 53.7 490.285 54.8333 494.419 57.1C498.619 59.3667 501.852 62.6 504.119 66.8C506.452 70.9333 507.619 75.7 507.619 81.1ZM493.119 77.1C493.052 73.5 491.752 70.6333 489.219 68.5C486.685 66.3 483.585 65.2 479.919 65.2C476.452 65.2 473.519 66.2667 471.119 68.4C468.785 70.4667 467.352 73.3667 466.819 77.1H493.119Z" fill="#ffffff"/>
<circle cx="10" cy="63" r="10" fill="#F3613C"/>
<circle cx="44" cy="63" r="10" fill="#F3613C"/>
<circle cx="10" cy="100" r="10" fill="#F3613C"/>
<circle cx="44" cy="100" r="10" fill="#F39F3C"/>
</svg>
